<?xml version="1.0" encoding="UTF-8"?>
<svg xmlns="http://www.w3.org/2000/svg" viewBox="0 0 512 512">
  <!-- Background shield -->
  <path fill="#4f46e5" d="M466.5 83.68l-192-80.01C269.6 1.641 261.3 0 256.1 0C250.7 0 242.5 1.641 237.6 3.672l-192 80.01C27.69 91.07 16 108.6 16 127.1C16 385.2 205.2 512 255.9 512c52.02 0 240.1-128.2 240.1-384C496 108.6 484.3 91.07 466.5 83.68z"/>
  
  <!-- Coronavirus icon -->
  <g fill="#ffffff">
    <path d="M192 176C165.5 176 144 197.5 144 224C144 250.5 165.5 272 192 272C218.5 272 240 250.5 240 224C240 197.5 218.5 176 192 176z"/>
    <path d="M304 328C317.3 328 328 317.3 328 304C328 290.7 317.3 280 304 280C290.7 280 280 290.7 280 304C280 317.3 290.7 328 304 328z"/>
    
    <!-- Simplified COVID structure paths -->
    <path d="M232 48v33.6c30.7 4.2 58.8 16.3 82.3 34.1l24.7-24.7-12.2-12.2c-9.4-9.4-9.4-24.6 0-33.9 4.7-4.7 10.9-7 17-7s12.3 2.3 17 7l56.6 56.6c9.4 9.4 9.4 24.6 0 33.9-9.4 9.4-24.6 9.4-33.9 0l-11.4-11.3-23.7 23.7c17.8 23.5 29.9 51.6 34.1 82.3h33.6v-16c0-13.3 10.7-24 24-24s24 10.7 24 24v80c0 13.3-10.7 24-24 24s-24-10.7-24-24v-16h-33.6c-4.2 30.7-16.3 58.8-34.1 82.3l23.7 23.7 11.4-11.3c9.4-9.4 24.6-9.4 33.9 0 9.4 9.4 9.4 24.6 0 33.9l-56.6 56.6c-9.4 9.4-24.6 9.4-33.9 0-9.4-9.4-9.4-24.6 0-33.9l11.3-11.4-23.7-23.7c-23.5 17.8-51.6 29.9-82.3 34.1v33.6h16c13.3 0 24 10.7 24 24s-10.7 24-24 24h-80c-13.3 0-24-10.7-24-24s10.7-24 24-24h16v-33.6c-30.7-4.2-58.8-16.3-82.3-34.1l-23.8 23.8 11.3 11.4c9.4 9.4 9.4 24.6 0 33.9-9.4 9.4-24.6 9.4-33.9 0l-56.6-56.6c-9.4-9.4-9.4-24.6 0-33.9 9.4-9.4 24.6-9.4 33.9 0l11.3 11.3 23.8-23.8c-17.8-23.5-29.9-51.6-34.1-82.3h-33.6v16c0 13.3-10.7 24-24 24s-24-10.7-24-24v-80c0-13.3 10.7-24 24-24s24 10.7 24 24v16h33.6c4.2-30.7 16.3-58.8 34.1-82.3l-23.8-23.8-11.3 11.3c-9.4 9.4-24.6 9.4-33.9 0-9.4-9.4-9.4-24.6 0-33.9l56.6-56.6c9.4-9.4 24.6-9.4 33.9 0 9.4 9.4 9.4 24.6 0 33.9l-11.3 11.3 23.8 23.8c23.5-17.8 51.6-29.9 82.3-34.1v-33.6h-16c-13.3 0-24-10.7-24-24s10.7-24 24-24h80c13.3 0 24 10.7 24 24s-10.7 24-24 24h-16z" opacity="0.7"/>
  </g>
</svg>